<svg width="87" height="92" viewBox="0 0 87 92" fill="none" xmlns="http://www.w3.org/2000/svg">
<path d="M84.8227 26.5328L69.8156 37.5182L39.8014 17.1168L53.5367 7.17773L84.8227 26.5328Z" fill="#FFBBDD"/>
<path d="M0 41.5824V72.4075L31.3834 91.9997L85.4752 58.5623V26.4311L69.4007 36.6191V19.9004L44.1409 34.5292V50.4642L31.3834 58.5623L0 41.5824Z" fill="#FF69B4"/>
<path d="M12.841 32.9502L2.28369 41.8312L30.972 58.0708L41.7589 50.2047L12.841 32.9502Z" fill="#FFBBDD"/>
<path d="M12.7235 16.312V32.3341L42.7377 49.5886V33.5665L12.7235 16.312Z" fill="#FF69B4"/>
<path d="M36.3504 0L12.7235 14.8149L43.8115 32.9504L68.1845 19.668L36.3504 0Z" fill="#FFBBDD"/>
<path d="M51.9829 66.404C56.7601 68.1539 57.8726 71.1149 58.8771 77.6351C58.2825 86.261 56.6893 89.2977 51.2169 90.9556L43.5567 89.1273C40.7455 88.5989 39.4335 86.1234 37.6838 76.8515C38.6209 69.3219 40.2541 66.6124 45.4683 64.9232L51.9829 66.404Z" fill="#FF69B4"/>
<ellipse cx="51.4722" cy="78.6796" rx="7.40489" ry="12.2758" fill="#FFBBDD"/>
<path d="M79.5597 50.7322C84.3369 52.4821 85.4494 55.443 86.4539 61.9632C85.8593 70.5892 84.2661 73.6258 78.7937 75.2838L71.1335 73.4554C68.3223 72.927 67.0103 70.4515 65.2606 61.1796C66.1977 53.6501 67.8309 50.9405 73.0451 49.2513L79.5597 50.7322Z" fill="#FF69B4"/>
<ellipse cx="79.0491" cy="63.0082" rx="7.40489" ry="12.2758" fill="#FFBBDD"/>
</svg>
